<?xml version="1.0" encoding="iso-8859-1"?>
<!-- Generator: Adobe Illustrator 19.0.0, SVG Export Plug-In . SVG Version: 6.00 Build 0)  -->
<svg version="1.1" id="Layer_1" xmlns="http://www.w3.org/2000/svg" xmlns:xlink="http://www.w3.org/1999/xlink" x="0px" y="0px"
	 viewBox="0 0 511.999 511.999" style="enable-background:new 0 0 511.999 511.999;" xml:space="preserve">
<polygon style="fill:#6DDAE1;" points="409.92,392.818 102.079,392.818 102.079,144.835 256,8.016 409.92,144.835 "/>
<polygon style="fill:#4FC4D3;" points="102.079,144.835 102.079,392.818 136.284,392.818 136.284,114.431 "/>
<rect x="191.866" y="127.732" style="fill:#CCCCCC;" width="128.267" height="102.614"/>
<path style="fill:#FFD791;" d="M409.602,288.072c-13.939,0.264-25.157,11.647-25.157,25.649v-12.353
	c0-14.014-10.988-25.895-24.998-26.245c-13.453-0.336-24.628,9.69-26.131,22.664v-17.692c0-14.382-11.77-26.499-26.149-26.226
	c-13.939,0.264-25.158,11.647-25.158,25.649v17.36l-0.178-0.258v-99.899c0-14.382-11.77-26.499-26.149-26.226
	c-13.939,0.264-25.157,11.647-25.157,25.649v190.389l-42.68-42.68c-12.523-12.523-32.827-12.523-45.349,0l-13.605,13.605
	l101.634,101.634v44.894H435.75V314.299C435.752,299.915,423.982,287.798,409.602,288.072z"/>
<g>
	<path style="fill:#F8BE73;" d="M264.551,171.953c-2.675-0.946-5.552-1.465-8.551-1.465c-14.168,0-25.653,11.485-25.653,25.653
		v188.125h17.102V196.141C247.449,184.973,254.589,175.477,264.551,171.953z"/>
	<path style="fill:#F8BE73;" d="M298.755,281.653c0-11.169,7.14-20.666,17.102-24.188c-2.675-0.946-5.552-1.465-8.551-1.465
		c-14.168,0-25.653,11.485-25.653,25.653v42.756h17.102V281.653z"/>
	<path style="fill:#F8BE73;" d="M350.062,298.755c0-11.169,7.14-20.666,17.102-24.188c-2.675-0.946-5.552-1.465-8.551-1.465
		c-14.168,0-25.653,11.485-25.653,25.653v25.653h17.102V298.755z"/>
	<path style="fill:#F8BE73;" d="M401.369,315.858c0-11.169,7.14-20.666,17.102-24.188c-2.675-0.946-5.552-1.465-8.551-1.465
		c-14.168,0-25.653,11.485-25.653,25.653v8.551h17.102V315.858z"/>
	<path style="fill:#F8BE73;" d="M144.955,341.631c-0.848,0.69-1.67,1.43-2.46,2.22l-13.605,13.605l101.634,101.634v44.894h17.308
		l-0.384-59.858L144.955,341.631z"/>
</g>
<g>
	<path style="fill:#FF8C78;" d="M439.849,78.563c-12.474-15.905-30.26-18.716-34.205-19.24c3.944-0.524,21.731-3.335,34.205-19.24
		c8.722-11.127,10.315-22.874,10.689-27.791c0.374,4.917,1.967,16.664,10.689,27.791c12.474,15.905,30.26,18.716,34.205,19.24
		c-3.944,0.524-21.731,3.335-34.205,19.24c-8.722,11.127-10.315,22.874-10.689,27.791C450.164,101.437,448.572,89.69,439.849,78.563
		z"/>
	<path style="fill:#FF8C78;" d="M50.772,78.563c-12.474-15.905-30.26-18.716-34.205-19.24c3.944-0.524,21.731-3.335,34.205-19.24
		c8.722-11.127,10.315-22.874,10.689-27.791c0.374,4.917,1.967,16.664,10.689,27.791c12.474,15.905,30.26,18.716,34.205,19.24
		c-3.944,0.524-21.731,3.335-34.205,19.24c-8.722,11.127-10.315,22.874-10.689,27.791C61.087,101.437,59.494,89.69,50.772,78.563z"
		/>
	<path style="fill:#FF8C78;" d="M50.772,467.64c-12.474-15.905-30.26-18.716-34.205-19.24c3.944-0.524,21.731-3.335,34.205-19.24
		c8.722-11.127,10.315-22.874,10.689-27.791c0.374,4.917,1.967,16.664,10.689,27.791c12.474,15.905,30.26,18.716,34.205,19.24
		c-3.944,0.524-21.731,3.335-34.205,19.24c-8.722,11.127-10.315,22.874-10.689,27.791C61.087,490.515,59.494,478.768,50.772,467.64z
		"/>
</g>
<path d="M417.937,280.994v-136.16c0-2.29-0.979-4.47-2.691-5.991L261.325,2.025c-3.038-2.7-7.614-2.7-10.652,0L96.753,138.843
	c-1.711,1.521-2.69,3.702-2.69,5.991v136.818c0,4.427,3.588,8.017,8.017,8.017c4.428,0,8.017-3.589,8.017-8.017V148.435L256,18.743
	l145.904,129.692v132.656c-4.604,1.169-8.846,3.278-12.488,6.135c-5.222-11.562-16.602-19.789-29.771-20.119
	c-7.092-0.179-13.678,1.796-19.186,5.352c-2.728-11.836-11.765-21.793-23.459-25.265c-3.234-0.961-6.614-1.413-9.988-1.343
	c-6.282,0.119-12.162,1.996-17.168,5.15v-12.639h30.288c4.428,0,8.017-3.589,8.017-8.017V127.732c0-4.427-3.588-8.017-8.017-8.017
	H191.866c-4.428,0-8.017,3.589-8.017,8.017v102.614c0,4.427,3.588,8.017,8.017,8.017h30.641v128.813l-28.994-28.994
	c-11.801-11.801-30.253-15.071-45.378-7.964c-4.196,1.972-8.031,4.686-11.308,7.963l-13.606,13.605
	c-3.087,3.086-3.087,8.251-0.001,11.338l21.678,21.677h-34.803v-60.392c0-4.427-3.588-8.017-8.017-8.017
	c-4.428,0-8.017,3.589-8.017,8.017v68.409c0,4.427,3.588,8.017,8.017,8.017h58.789c0.02,0,0.041-0.003,0.061-0.003l61.578,61.578
	v41.574c0,4.427,3.588,8.017,8.017,8.017h205.228c4.427,0,8.017-3.589,8.017-8.017l0.001-42.756c0-4.427-3.588-8.017-8.017-8.017
	c-4.427,0-8.017,3.589-8.017,8.017l-0.001,34.739H238.54v-36.877c0-2.126-0.844-4.165-2.347-5.668l-95.965-95.965l7.938-7.935
	c9.269-9.271,24.742-9.271,34.01,0l42.68,42.68c4.947,4.945,13.686,1.32,13.686-5.668v-190.39c0-9.542,7.758-17.453,17.294-17.634
	c9.874-0.177,17.981,8.494,17.981,18.212v125.552c0,4.427,3.588,8.017,8.017,8.017s8.017-3.589,8.017-8.017l0.177-42.756
	c0-9.542,7.758-17.453,17.294-17.634c9.872-0.219,17.98,8.524,17.98,18.212l-0.177,42.179c0,4.427,3.588,8.017,8.017,8.017
	s8.017-3.589,8.017-8.017v-22.812c0.052-0.247,0.095-0.497,0.124-0.751c1.054-9.107,8.766-15.798,17.967-15.573
	c9.475,0.236,17.182,8.415,17.182,18.231v20.905c0,4.427,3.588,8.017,8.017,8.017s8.017-3.589,8.017-8.017v-8.551
	c0-0.003,0-0.006,0-0.011c0.005-9.538,7.76-17.442,17.293-17.623c9.873-0.178,17.981,8.497,17.981,18.212v104.174
	c0,4.427,3.588,8.017,8.017,8.017s8.017-3.589,8.017-8.017V314.3c0-9.176-3.779-18.149-10.367-24.612
	C429.006,285.372,423.681,282.406,417.937,280.994z M289.848,222.329v-25.61c0-3.284-0.492-6.538-1.415-9.664h23.683v35.273H289.848
	z M247.983,135.749v27.753c-5.312,1.349-10.132,3.972-14.117,7.521c0,0-33.806,0.015-33.983,0.027v-35.3H247.983z M199.883,222.329
	v-35.3c0.177,0.012,23.897,0.027,23.897,0.027c-0.823,2.898-1.273,5.943-1.273,9.086v26.188H199.883z M264.016,163.417v-27.668h48.1
	v35.273h-33.795C274.162,167.295,269.264,164.708,264.016,163.417z"/>
<path d="M496.487,51.377c-5.443-0.723-19.158-3.753-28.951-16.239c-6.958-8.877-8.628-18.505-9.004-23.453
	c-0.316-4.182-3.801-7.411-7.993-7.411s-7.677,3.229-7.994,7.41c-0.376,4.948-2.046,14.575-9.003,23.452
	c-9.794,12.488-23.509,15.518-28.952,16.241c-3.984,0.529-6.961,3.927-6.961,7.946s2.977,7.417,6.962,7.947
	c5.442,0.723,19.158,3.754,28.951,16.239c6.959,8.877,8.628,18.505,9.004,23.453c0.317,4.18,3.802,7.41,7.994,7.41
	s7.677-3.229,7.994-7.41c0.376-4.948,2.046-14.575,9.003-23.452c9.794-12.488,23.509-15.518,28.952-16.241
	c3.983-0.528,6.96-3.927,6.96-7.946S500.472,51.906,496.487,51.377z M454.919,73.617c-1.667,2.127-3.119,4.277-4.38,6.421
	c-1.261-2.143-2.713-4.294-4.38-6.421c0,0,0-0.001-0.001-0.001c-5.031-6.414-10.793-11.006-16.419-14.293
	c8.564-5.001,15.77-12.164,20.801-20.715c5.032,8.551,12.236,15.714,20.801,20.715C465.711,62.61,459.95,67.202,454.919,73.617z"/>
<path d="M15.513,67.27c5.442,0.723,19.158,3.754,28.951,16.239c6.958,8.877,8.628,18.505,9.004,23.453
	c0.316,4.18,3.801,7.41,7.993,7.41s7.677-3.229,7.994-7.41c0.376-4.948,2.046-14.575,9.003-23.452
	c9.794-12.488,23.509-15.518,28.952-16.241c3.984-0.528,6.961-3.927,6.961-7.946s-2.977-7.417-6.962-7.947
	c-5.443-0.723-19.158-3.753-28.951-16.239c-6.959-8.877-8.628-18.505-9.004-23.453c-0.316-4.18-3.801-7.41-7.993-7.41
	s-7.677,3.229-7.994,7.41c-0.376,4.948-2.046,14.575-9.003,23.452c-9.794,12.488-23.509,15.518-28.952,16.241
	c-3.984,0.529-6.961,3.927-6.961,7.946S11.528,66.741,15.513,67.27z M57.081,45.029c1.667-2.127,3.119-4.277,4.38-6.421
	c5.032,8.551,12.236,15.714,20.801,20.715c-8.564,5.002-15.77,12.164-20.801,20.715c-1.261-2.143-2.713-4.294-4.38-6.421
	c0,0,0-0.001-0.001-0.001c-5.031-6.416-10.792-11.007-16.419-14.293C46.288,56.037,52.05,51.444,57.081,45.029z"/>
<path d="M107.41,440.454c-5.443-0.723-19.158-3.753-28.951-16.239c-6.959-8.877-8.628-18.505-9.004-23.453
	c-0.316-4.182-3.801-7.411-7.993-7.411s-7.677,3.229-7.994,7.41c-0.376,4.948-2.046,14.575-9.003,23.452
	c-9.794,12.488-23.509,15.518-28.952,16.241c-3.984,0.529-6.961,3.927-6.961,7.946s2.977,7.417,6.962,7.947
	c5.442,0.723,19.158,3.754,28.951,16.239c6.958,8.877,8.628,18.505,9.004,23.453c0.316,4.18,3.801,7.41,7.993,7.41
	s7.677-3.229,7.994-7.41c0.376-4.948,2.046-14.575,9.003-23.452c9.794-12.488,23.509-15.518,28.952-16.241
	c3.985-0.529,6.962-3.927,6.962-7.947S111.394,440.983,107.41,440.454z M65.841,462.695c-1.667,2.127-3.119,4.277-4.38,6.421
	c-1.261-2.143-2.713-4.294-4.38-6.421c0,0,0-0.001-0.001-0.001c-5.031-6.414-10.793-11.006-16.419-14.293
	c8.564-5.001,15.77-12.164,20.801-20.715c5.022,8.533,12.252,15.723,20.801,20.715C76.634,451.687,70.873,456.279,65.841,462.695z"
	/>
<g>
</g>
<g>
</g>
<g>
</g>
<g>
</g>
<g>
</g>
<g>
</g>
<g>
</g>
<g>
</g>
<g>
</g>
<g>
</g>
<g>
</g>
<g>
</g>
<g>
</g>
<g>
</g>
<g>
</g>
</svg>
